# xmcd CD database file generated by Grip 2.7
# 
# Track frame offsets:
#       182
#       15677
#       30037
#       45222
#       54715
#       69180
#       81170
#       93270
#       107810
#       117277
# 
# Disc length: 1726 seconds
# 
# Revision: 3
# Processed by: cddbd v1.4b41PL1 Copyright (c) Steve Scherf et al.
# Submitted via: Grip 2.7
# 
DISCID=6b06bc0a
DTITLE=Ernest Tubb - Best of Ernest Tubb
DYEAR=1900
DGENRE=
TTITLE0=Soldier's Last Letter
TTITLE1=It's Been So Long Darlin'
TTITLE2=Rainbow At Midnight
TTITLE3=Walking The Floor Over You
TTITLE4=Let's Say Goodbye Like We Said Hello
TTITLE5=Thanks A Lot
TTITLE6=Half A MInd
TTITLE7=Filipino Baby
TTITLE8=Have You Ever Been Lonely
TTITLE9=Try Me One More Time
EXTD=
EXTT0=
EXTT1=
EXTT2=
EXTT3=
EXTT4=
EXTT5=
EXTT6=
EXTT7=
EXTT8=
EXTT9=
PLAYORDER=
